<?xml version="1.0" encoding="UTF-8"?>
<svg width="800" height="600" viewBox="0 0 800 600" xmlns="http://www.w3.org/2000/svg">
  <!-- Background -->
  <rect width="800" height="600" fill="#F0F9FF"/>
  
  <!-- Coastline -->
  <path d="M600,200 C580,220 570,250 580,280 C590,310 585,340 570,360 C555,380 540,400 520,410 C500,420 480,440 460,450 C440,460 420,465 400,460" 
        fill="none" stroke="#0EA5E9" stroke-width="3"/>
  
  <!-- Eastern Suburbs Regions -->
  <g fill="#BAE6FD" fill-opacity="0.3" stroke="#0EA5E9" stroke-width="2">
    <!-- Bondi -->
    <circle cx="520" cy="320" r="40"/>
    <!-- Double Bay -->
    <circle cx="480" cy="280" r="35"/>
    <!-- Rose Bay -->
    <circle cx="510" cy="260" r="30"/>
    <!-- Vaucluse -->
    <circle cx="540" cy="240" r="35"/>
  </g>
  
  <!-- Labels -->
  <g font-family="Arial" font-size="14" fill="#0C4A6E">
    <text x="510" y="325">Bondi</text>
    <text x="465" y="285">Double Bay</text>
    <text x="495" y="265">Rose Bay</text>
    <text x="520" y="245">Vaucluse</text>
  </g>
  
  <!-- Premium Areas Indicators -->
  <g fill="#0EA5E9">
    <circle cx="520" cy="320" r="4"/>
    <circle cx="480" cy="280" r="4"/>
    <circle cx="510" cy="260" r="4"/>
    <circle cx="540" cy="240" r="4"/>
  </g>
  
  <!-- Legend -->
  <g transform="translate(50, 500)">
    <rect width="200" height="80" fill="white" rx="5"/>
    <text x="20" y="30" font-family="Arial" font-size="14" fill="#0C4A6E">● Premium Areas</text>
    <text x="20" y="60" font-family="Arial" font-size="14" fill="#0C4A6E">◯ Target Markets</text>
  </g>
</svg> 